<?xml version="1.0" encoding="UTF-8" standalone="no"?>
<!DOCTYPE svg PUBLIC "-//W3C//DTD SVG 20010904//EN"
              "http://www.w3.org/TR/2001/REC-SVG-20010904/DTD/svg10.dtd">

<svg xmlns="http://www.w3.org/2000/svg"
     width="7.01389in" height="2.08333in"
     viewBox="0 0 505 150">
  <path id="Selection"
        fill="none" stroke="black" stroke-width="1"
        d="M 22.98,131.69
           C 20.79,134.97 13.99,134.52 11.60,131.69
             9.71,129.44 10.01,125.77 10.00,123.00
             10.00,123.00 10.00,26.00 10.00,26.00
             10.00,23.55 9.76,19.48 11.17,17.37
             13.33,14.30 20.84,14.10 22.98,17.37
             24.21,19.16 24.00,22.81 24.00,25.00
             24.02,33.34 23.09,55.28 25.00,62.00
             30.12,48.97 42.99,47.86 55.00,48.00
             65.80,48.13 74.41,52.90 80.30,62.00
             90.57,77.87 89.43,109.13 77.48,123.99
             69.29,134.18 60.03,135.14 48.00,135.00
             43.33,134.94 40.25,134.47 36.00,132.34
             29.91,129.30 27.70,126.46 24.00,121.00
             24.00,123.65 24.38,129.59 22.98,131.69 Z
           M 116.96,15.96
           C 126.52,21.27 121.42,37.38 110.00,35.62
             100.76,34.19 96.80,21.37 107.02,15.96
             110.25,14.95 113.87,14.53 116.96,15.96 Z
           M 228.96,15.96
           C 238.52,21.27 233.42,37.38 222.00,35.62
             212.76,34.19 208.80,21.37 219.02,15.96
             222.25,14.95 225.87,14.53 228.96,15.96 Z
           M 263.98,131.69
           C 261.79,134.97 254.99,134.52 252.60,131.69
             250.71,129.44 251.01,125.77 251.00,123.00
             251.00,123.00 251.00,26.00 251.00,26.00
             251.00,23.55 250.76,19.48 252.17,17.37
             254.33,14.30 261.84,14.10 263.98,17.37
             265.21,19.16 265.00,22.81 265.00,25.00
             265.02,33.34 264.09,55.28 266.00,62.00
             271.12,48.97 283.99,47.86 296.00,48.00
             306.80,48.13 315.41,52.90 321.30,62.00
             331.57,77.87 330.43,109.13 318.48,123.99
             310.29,134.18 301.03,135.14 289.00,135.00
             284.33,134.94 281.25,134.47 277.00,132.34
             270.91,129.30 268.70,126.46 265.00,121.00
             265.00,123.65 265.38,129.59 263.98,131.69 Z
           M 378.00,122.83
           C 381.65,123.22 385.63,122.98 389.00,121.44
             397.33,117.66 398.74,110.65 403.10,107.74
             406.61,105.40 411.89,106.31 413.96,110.13
             416.04,113.97 412.78,119.01 410.47,122.00
             403.94,130.48 395.67,134.87 385.00,135.00
             372.66,135.14 362.77,134.88 353.17,125.70
             336.70,109.95 337.16,71.52 354.09,56.32
             363.19,48.16 371.59,47.87 383.00,48.00
             397.70,48.18 408.33,57.44 412.93,71.00
             414.97,76.17 418.48,89.20 412.93,92.83
             410.51,94.22 406.58,94.00 404.00,94.00
             404.00,94.00 356.00,94.00 356.00,94.00
             356.12,107.77 362.94,121.22 378.00,122.83 Z
           M 464.00,122.83
           C 467.65,123.22 471.63,122.98 475.00,121.44
             483.33,117.66 484.74,110.65 489.10,107.74
             492.61,105.40 497.89,106.31 499.96,110.13
             502.04,113.97 498.78,119.01 496.47,122.00
             489.94,130.48 481.67,134.87 471.00,135.00
             458.66,135.14 448.77,134.88 439.17,125.70
             422.70,109.95 423.16,71.52 440.09,56.32
             449.19,48.16 457.59,47.87 469.00,48.00
             483.70,48.18 494.33,57.44 498.93,71.00
             500.97,76.17 504.48,89.20 498.93,92.83
             496.51,94.22 492.58,94.00 490.00,94.00
             490.00,94.00 442.00,94.00 442.00,94.00
             442.12,107.77 448.94,121.22 464.00,122.83 Z
           M 119.00,60.00
           C 119.00,60.00 119.00,122.00 119.00,122.00
             119.00,125.03 119.29,129.23 117.26,131.63
             114.77,134.70 107.48,134.93 105.17,131.63
             103.76,129.52 104.00,125.45 104.00,123.00
             104.00,123.00 104.00,69.00 104.00,69.00
             104.00,63.30 102.25,53.33 107.23,49.74
             117.00,47.16 118.98,51.26 119.00,60.00 Z
           M 231.00,60.00
           C 231.00,60.00 231.00,122.00 231.00,122.00
             231.00,125.03 231.29,129.23 229.26,131.63
             226.77,134.70 219.48,134.93 217.17,131.63
             215.76,129.52 216.00,125.45 216.00,123.00
             216.00,123.00 216.00,69.00 216.00,69.00
             216.00,63.30 214.25,53.33 219.23,49.74
             229.00,47.16 230.98,51.26 231.00,60.00 Z
           M 147.00,62.00
           C 144.34,61.99 140.60,62.32 138.51,60.40
             135.78,57.89 134.47,50.20 145.00,50.00
             145.00,50.00 189.00,50.00 189.00,50.00
             190.89,50.00 194.18,49.88 195.87,50.60
             203.97,54.03 197.29,64.73 193.99,69.00
             184.67,81.04 160.13,112.01 150.00,121.00
             150.00,121.00 165.00,120.00 165.00,120.00
             165.00,120.00 191.00,120.00 191.00,120.00
             193.74,120.04 197.34,120.03 199.57,121.85
             202.38,124.16 202.73,129.80 199.57,131.98
             197.76,133.22 194.16,133.00 192.00,133.00
             192.00,133.00 142.00,133.00 142.00,133.00
             136.02,132.89 132.42,130.72 133.38,124.00
             134.19,118.28 143.07,108.64 146.92,104.00
             146.92,104.00 182.00,62.00 182.00,62.00
             182.00,62.00 147.00,62.00 147.00,62.00 Z
           M 25.26,100.00
           C 27.62,112.34 37.23,124.09 51.00,122.66
             66.78,121.02 71.73,106.67 72.26,93.00
             72.88,76.51 66.84,58.76 47.00,60.30
             27.10,64.03 21.86,82.19 25.26,100.00 Z
           M 266.26,100.00
           C 268.62,112.34 278.23,124.09 292.00,122.66
             307.78,121.02 312.73,106.67 313.26,93.00
             313.88,76.51 307.84,58.76 288.00,60.30
             268.10,64.03 262.86,82.19 266.26,100.00 Z
           M 392.00,83.00
           C 393.93,83.00 397.87,83.23 399.39,81.98
             403.65,78.46 395.77,66.85 392.91,64.34
             385.61,57.92 371.15,58.49 364.18,65.21
             359.25,69.97 357.31,76.49 356.00,83.00
             356.00,83.00 392.00,83.00 392.00,83.00 Z
           M 478.00,83.00
           C 479.93,83.00 483.87,83.23 485.39,81.98
             489.65,78.46 481.77,66.85 478.91,64.34
             471.61,57.92 457.15,58.49 450.18,65.21
             445.25,69.97 443.31,76.49 442.00,83.00
             442.00,83.00 478.00,83.00 478.00,83.00 Z
           M 183.00,61.00
           C 183.00,61.00 184.00,62.00 184.00,62.00
             184.00,62.00 184.00,61.00 184.00,61.00
             184.00,61.00 183.00,61.00 183.00,61.00 Z
           M 149.00,121.00
           C 149.00,121.00 150.00,122.00 150.00,122.00
             150.00,122.00 150.00,121.00 150.00,121.00
             150.00,121.00 149.00,121.00 149.00,121.00 Z" />
</svg>
